<svg width="52" height="52" viewBox="0 0 52 52" fill="none" xmlns="http://www.w3.org/2000/svg">
<g filter="url(#filter0_d_103_1396)">
<rect x="1" y="1" width="48" height="48" rx="1" fill="#9290E0" stroke="black" stroke-width="2"/>
</g>
<path d="M34.4259 34.9245C34.4259 35.5507 34.1771 36.1513 33.7343 36.5941C33.2915 37.0369 32.6909 37.2857 32.0647 37.2857H17.8975C17.2713 37.2857 16.6707 37.0369 16.2279 36.5941C15.7851 36.1513 15.5363 35.5507 15.5363 34.9245V18.3961H34.4259V34.9245ZM21.0458 22.3315C21.0458 22.1227 20.9628 21.9225 20.8152 21.7749C20.6676 21.6273 20.4674 21.5444 20.2587 21.5444C20.05 21.5444 19.8498 21.6273 19.7022 21.7749C19.5546 21.9225 19.4716 22.1227 19.4716 22.3315V33.3504C19.4716 33.5591 19.5546 33.7593 19.7022 33.9069C19.8498 34.0545 20.05 34.1374 20.2587 34.1374C20.4674 34.1374 20.6676 34.0545 20.8152 33.9069C20.9628 33.7593 21.0458 33.5591 21.0458 33.3504V22.3315ZM25.7682 22.3315C25.7682 22.1227 25.6852 21.9225 25.5376 21.7749C25.39 21.6273 25.1898 21.5444 24.9811 21.5444C24.7723 21.5444 24.5722 21.6273 24.4245 21.7749C24.2769 21.9225 24.194 22.1227 24.194 22.3315V33.3504C24.194 33.5591 24.2769 33.7593 24.4245 33.9069C24.5722 34.0545 24.7723 34.1374 24.9811 34.1374C25.1898 34.1374 25.39 34.0545 25.5376 33.9069C25.6852 33.7593 25.7682 33.5591 25.7682 33.3504V22.3315ZM30.4905 22.3315C30.4905 22.1227 30.4076 21.9225 30.26 21.7749C30.1124 21.6273 29.9122 21.5444 29.7035 21.5444C29.4947 21.5444 29.2945 21.6273 29.1469 21.7749C28.9993 21.9225 28.9164 22.1227 28.9164 22.3315V33.3504C28.9164 33.5591 28.9993 33.7593 29.1469 33.9069C29.2945 34.0545 29.4947 34.1374 29.7035 34.1374C29.9122 34.1374 30.1124 34.0545 30.26 33.9069C30.4076 33.7593 30.4905 33.5591 30.4905 33.3504V22.3315ZM14.7492 13.6737H20.6522L21.1146 12.7539C21.2126 12.5572 21.3635 12.3918 21.5503 12.2762C21.7372 12.1606 21.9525 12.0995 22.1722 12.0996H27.7948C28.0141 12.0988 28.2291 12.1597 28.4152 12.2754C28.6014 12.3911 28.7512 12.5569 28.8475 12.7539L29.3099 13.6737H35.2129C35.4217 13.6737 35.6219 13.7567 35.7695 13.9043C35.9171 14.0519 36 14.2521 36 14.4608V16.0349C36 16.2437 35.9171 16.4439 35.7695 16.5915C35.6219 16.7391 35.4217 16.822 35.2129 16.822H14.7492C14.5405 16.822 14.3403 16.7391 14.1927 16.5915C14.0451 16.4439 13.9622 16.2437 13.9622 16.0349V14.4608C13.9622 14.2521 14.0451 14.0519 14.1927 13.9043C14.3403 13.7567 14.5405 13.6737 14.7492 13.6737Z" fill="#50E3C2"/>
<defs>
<filter id="filter0_d_103_1396" x="0" y="0" width="52" height="52" filterUnits="userSpaceOnUse" color-interpolation-filters="sRGB">
<feFlood flood-opacity="0" result="BackgroundImageFix"/>
<feColorMatrix in="SourceAlpha" type="matrix" values="0 0 0 0 0 0 0 0 0 0 0 0 0 0 0 0 0 0 127 0" result="hardAlpha"/>
<feOffset dx="2" dy="2"/>
<feComposite in2="hardAlpha" operator="out"/>
<feColorMatrix type="matrix" values="0 0 0 0 0 0 0 0 0 0 0 0 0 0 0 0 0 0 1 0"/>
<feBlend mode="normal" in2="BackgroundImageFix" result="effect1_dropShadow_103_1396"/>
<feBlend mode="normal" in="SourceGraphic" in2="effect1_dropShadow_103_1396" result="shape"/>
</filter>
</defs>
</svg>
