<svg width="162" height="162" viewBox="0 0 162 162" fill="none" xmlns="http://www.w3.org/2000/svg">
<path fill-rule="evenodd" clip-rule="evenodd" d="M161.143 80.5716C161.143 96.5071 156.418 112.085 147.564 125.335C138.711 138.585 126.128 148.912 111.405 155.01C96.6825 161.108 80.4822 162.704 64.8529 159.595C49.2235 156.486 34.867 148.812 23.5989 137.544C12.3308 126.276 4.65707 111.92 1.5482 96.2903C-1.56068 80.6609 0.0349101 64.4607 6.13318 49.7382C12.2315 35.0156 22.5585 22.4321 35.8084 13.5788C49.0584 4.72544 64.636 0 80.5716 0C101.94 0 122.434 8.48876 137.544 23.5989C152.654 38.709 161.143 59.2026 161.143 80.5716Z" fill="#ffffff"/>
<path fill-rule="evenodd" clip-rule="evenodd" d="M99.855 135.053C100.059 132.321 99.6765 129.576 98.7329 127.003C97.7892 124.43 96.3064 122.089 94.3838 120.136C112.332 118.141 131.17 111.327 131.17 80.3799C131.298 72.3746 128.332 64.6287 122.891 58.756C125.348 51.8046 125.06 44.1775 122.085 37.4314C122.085 37.4314 115.332 35.2675 99.9548 45.6957C86.7496 42.0738 72.8128 42.0738 59.6076 45.6957C44.2223 35.2675 37.4543 37.4314 37.4543 37.4314C34.4966 44.1835 34.2223 51.8087 36.6869 58.756C31.253 64.6193 28.2829 72.3482 28.3919 80.3415C28.3919 111.212 47.1996 118.126 65.0941 120.159C62.1678 123.02 60.3537 126.827 59.9759 130.902C57.9999 132.014 55.8229 132.724 53.5708 132.989C51.3187 133.254 49.0365 133.07 46.8561 132.447C44.6758 131.824 42.6407 130.774 40.8688 129.359C39.0969 127.944 37.6233 126.192 36.5334 124.203C35.2424 121.971 33.4593 120.063 31.3198 118.625C29.1803 117.186 26.7407 116.254 24.1868 115.9C24.1868 115.9 16.3215 115.801 23.6343 120.804C27.927 123.536 31.1006 127.714 32.5816 132.583C32.5816 132.583 37.3085 148.259 59.7227 143.387C59.7227 150.109 59.8301 155.181 59.8301 157.092C59.8163 157.554 59.7335 158.012 59.5846 158.45C72.8306 162 86.7779 162 100.024 158.45C99.87 158.023 99.7795 157.576 99.7553 157.122C99.7553 154.483 99.855 145.796 99.855 135.053Z" fill="#9290E0"/>
</svg>
